# xmcd
#
# Track frame offsets:
#	150
#	16050
#	32765
#	43541
#	59537
#	74415
#	92943
#	105974
#	119782
#	133562
#	151926
#	168031
#	184447
#	198621
#
# Disc length: 2891 seconds
#
# Revision: 1
# Processed by: cddbd v1.5.2PL0 Copyright (c) Steve Scherf et al.
# Submitted via: audiograbber 1.83.01
#
DISCID=c00b490e
DTITLE=Anne Murray - Sunfly World Stars
DYEAR=1900
DGENRE=Karaoke
TTITLE0=Could I have this dance
TTITLE1=You needed me
TTITLE2=Snowbird
TTITLE3=A stranger in my place
TTITLE4=Blessed are the believers
TTITLE5=Broken Hearted Me
TTITLE6=Cotton Jenny
TTITLE7=Danny's Song
TTITLE8=He thinks I still care
TTITLE9=I can see Arkansas
TTITLE10=Shadows in the moonlight
TTITLE11=A little good news
TTITLE12=I just fall in love again
TTITLE13=You won't see me
EXTD=
EXTT0=
EXTT1=
EXTT2=
EXTT3=
EXTT4=
EXTT5=
EXTT6=
EXTT7=
EXTT8=
EXTT9=
EXTT10=
EXTT11=
EXTT12=
EXTT13=
PLAYORDER=
